# xmcd
#
# Track frame offsets:
#	150
#	12569
#	50069
#	79269
#	98883
#	128388
#	144141
#	166299
#
# Disc length: 2846 seconds
#
# Revision: 1
# Processed by: cddbd v1.5.2PL0 Copyright (c) Steve Scherf et al.
# Submitted via: EasyCDDAExtractor 16.0.8.1
#
DISCID=5f0b1c08
DTITLE=Jack Bruce& His Big Blues Band - Live 2012  disc 1
DYEAR=2012
DGENRE=Blues
TTITLE0=Can You Follow
TTITLE1=Morning Story
TTITLE2=You Burned The Tables On Me
TTITLE3=Neighbor Neighbor
TTITLE4=Childsong
TTITLE5=Weird Of Hermiston
TTITLE6=Folk Song
TTITLE7=Spoonful
EXTD=
EXTT0=
EXTT1=
EXTT2=
EXTT3=
EXTT4=
EXTT5=
EXTT6=
EXTT7=
PLAYORDER=
